<svg xmlns="http://www.w3.org/2000/svg" width="135.737" height="45.435" viewBox="0 0 135.737 45.435"><defs><style>.a{fill:#002f53;}</style></defs><g transform="translate(-47.411 -140.019)"><g transform="translate(47.411 140.019)"><g transform="translate(35.807 0)"><path class="a" d="M317.911,254.655h0Z" transform="translate(-304.57 -233.826)"/><path class="a" d="M529.455,284.937a.138.138,0,0,1-.025-.036v0a.153.153,0,0,0,.024.033Z" transform="translate(-477.657 -258.577)"/><path class="a" d="M339.476,273.673v0h0v0Z" transform="translate(-322.216 -249.389)"/><path class="a" d="M261.533,167.771a4.42,4.42,0,0,1,1-.394v0h0a2.592,2.592,0,0,1,.466-.064c.163-.007.3,0,.428,0l.17,0c.383,0,.587-.092.634-.6v-.005h0l0-.088v0h0v-.068a4.842,4.842,0,0,0-.037-.507,2.535,2.535,0,0,1,.188-1.574l.011-.02a1.631,1.631,0,0,1,.1-.168c.07-.1.132-.194.188-.278.448-.665.494-.735,1.3-.735.2,0,.509.011.9.024a22.291,22.291,0,0,0,4.523-.129h.014l.011,0a1.349,1.349,0,0,0,.255-.091,4.647,4.647,0,0,1,2.511-.5,9.929,9.929,0,0,1,1.144.049,2.055,2.055,0,0,0,1.615-.261l.124-.1a2.176,2.176,0,0,1,1.314-.6,1.157,1.157,0,0,1,.532.132,2.416,2.416,0,0,0,2.362-.185h0l.024-.018.022-.018.017-.014a6.786,6.786,0,0,1,.835-.627h0a2.417,2.417,0,0,1,1.355-.494,4.245,4.245,0,0,0,2.006-.6h0l.019-.01c.124-.064.232-.119.317-.166l.2-.111a6.142,6.142,0,0,1,1.942-.8.266.266,0,0,1,.172.044c.092.078.272.251.5.471.165.16.36.347.574.55l.026.025h0c.439.415.836.771,1.213,1.088h0l.013.011.013.011h0c.206.172.408.334.6.483h-.008l.229.165h0l.023.017h0c.12.085.239.168.355.243.194.127.41.261.66.409h0v0l.408.242c.382.225.742.438,1.049.643l0,0c.692.465.943.8.813,1.071l-.026.053-.02.04h0l-.026.049a2.244,2.244,0,0,1-.534.723,2.037,2.037,0,0,0-1.569.154,1.7,1.7,0,0,0-.542,1.183.255.255,0,0,0-.166.184l-.015.1h.029a.624.624,0,0,0,.253.268c.567.378,1.078.483,1.4.288a.691.691,0,0,1,.74.072l.039.039h.02a8.819,8.819,0,0,0,1.9.1h.189c.812,0,1.754-.02,2.077-.068a.868.868,0,0,0,.144-.034h0a.849.849,0,0,0,.555-.658h.008l.017-.069a1.345,1.345,0,0,1,.076-.242,2.114,2.114,0,0,1,.2-.27,2.476,2.476,0,0,0,.641-1.293,2.2,2.2,0,0,1,.066-.414h0a9.192,9.192,0,0,1,.451-1.318h0c.1-.242.174-.4.207-.462a1.01,1.01,0,0,0,.056-.369h0v-.091c0-.179-.011-.385-.022-.577h0l-.013-.194c-.013-.189-.027-.4-.02-.471h.082l-.116-.147c-.091-.116-.348-.161-.917-.161-.047,0-.1,0-.155,0-.433.018-1.021.039-1.178-.834l-.011-.076a3.2,3.2,0,0,1-.027-.5,2.81,2.81,0,0,1,.066-.577l.014-.06a2.5,2.5,0,0,1,1.264-1.6l.026-.012.015-.024s.06-.095.129-.1c.05.1.1.214.165.338.1.216.223.461.354.719l0,.007c.078.2.186.463.318.752l.024.053h0a10.069,10.069,0,0,0,.576,1.067l.027.043h0a8.062,8.062,0,0,0,.816,1.079h0l0,0,.025.028h0a7.084,7.084,0,0,0,.672.646l.025.021h0l.094.077c.277.219.531.406.778.57l0,0h0a8.231,8.231,0,0,0,1.688.9h0c.234.093.466.174.69.254.279.1.568.2.877.328a3.222,3.222,0,0,0,1.091.3.359.359,0,0,0,.31-.117c.1-.14.03-.358-.215-.647-.028-.034-.063-.072-.1-.114h0l-.162-.156c-.192-.185-.453-.42-.755-.692l-.046-.042h.007l-.178-.159c-.232-.208-.478-.429-.729-.661l0,0c-.21-.193-.458-.423-.7-.663h0c-.425-.413-.776-.783-1.043-1.1l0,0a4.369,4.369,0,0,1-.474-.659c-.051-.091-.1-.19-.159-.3h0l-.063-.13c-.294-.611-.605-1.412-.907-2.187-.221-.568-.449-1.152-.673-1.673h0l-.021-.047-.035-.083h0c-.172-.391-.315-.685-.45-.925-.088-.16-.192-.406-.282-.625h0l-.106-.262c-.15-.37-.318-.784-.5-1.168h.007l-.066-.132a6.024,6.024,0,0,0-.3-.533h0l-.027-.039c-.024-.036-.047-.072-.07-.1h0a1.428,1.428,0,0,0-.493-.477,2.654,2.654,0,0,0-.645-.227h0a6.157,6.157,0,0,0-1.173-.087c-.252,0-.537-.008-.863-.025a27.517,27.517,0,0,1-4.792-.824,34.352,34.352,0,0,0-6.083-.421,28.575,28.575,0,0,0-3.5.164l-.614.088c-1.988.286-6.126.881-8.55,1.1h0c-.365.033-.783.068-1.113.079a12.68,12.68,0,0,1-2.253-.079v0c-.4-.055-.733-.126-1.052-.2-.235-.051-.456-.1-.69-.136a2.828,2.828,0,0,0-1.742.276,5.654,5.654,0,0,1-.65-.289,3.279,3.279,0,0,1-1.084-.845c-.124-.165-.227-.29-.313-.395l-.082-.1-.045-.059c-.189-.245-.264-.4-.305-1.087-.012-.2-.016-.346-.019-.469-.014-.53-.015-.577-.56-1.406h0l-.094-.141c-.3-.452-.622-.9-.932-1.339-.358-.5-.727-1.022-1.056-1.53a7.191,7.191,0,0,0-1.739-1.964,2.691,2.691,0,0,0-1.69-.4,14.589,14.589,0,0,0-1.9.387,6.809,6.809,0,0,0-1.412.546,13.324,13.324,0,0,0-3.469,2.829,11.232,11.232,0,0,0-.662,1.041c-.064.043-.288.191-.624.4l0,0h0c-.643.4-1.637,1-2.722,1.533-.391.192-.743.354-1.077.495a4.975,4.975,0,0,0-1.9,1.1l-.108.145h.029c-.114.285.063.537.26.772a5.155,5.155,0,0,0,1.027.985h0a3.1,3.1,0,0,0,1.747.574q.443.01.815.011c1.344,0,2.013-.1,2.189-.331.056-.072.257-.2.965-.237h0c.265-.013.562-.013.861,0h0l.323.016c.729.048.9.32.964.581v0h0a1.781,1.781,0,0,1,.036.5c0,.018,0,.032,0,.049H253.7l.011.1.006.083h.013a.672.672,0,0,0,.7.5c.463,0,.631.308.91.818l.1.188h0l.053.095a2.639,2.639,0,0,1,.274,1.409h0a3.832,3.832,0,0,1-.246,1.154,4.325,4.325,0,0,0-.387,2.244,2.219,2.219,0,0,0,.206.641h0l.025.051h0a4.981,4.981,0,0,0,.789,1.079h0c.2.213.413.432.664.669.149.14.311.289.485.446h0l.025.022h0c.229.2.473.418.73.642h0l.024.021h0c.252.218.507.433.755.643h0v0c.426.36.811.679,1.067.888l.008.006c.191.157.311.253.311.253a1.738,1.738,0,0,1,.518,1h0a.731.731,0,0,1,0,.1c-.011.107-.02.2-.027.285-.035.4-.051.448-.152.462a1.7,1.7,0,0,1-.265-.02c-.48-.055-1.372-.157-1.62.426-.153.354-.33.7-.452.921l-.073.134h0c-.118.216-.224.4-.3.529h0c-.01.016-.017.029-.024.041l-.053.094h.011a.209.209,0,0,0,0,.173c.086.162.378.188,1.347.274l.314.028c.349.031.614.058.821.079.289.029.469.048.606.048a.917.917,0,0,0,.434-.1C261.381,167.847,261.453,167.811,261.533,167.771Zm-6.689-16.355-.024.009c-.019.007-.037.014-.056.019v.005l0-.007c-.271.087-.366.07-.4.044l-.008-.011c-.055-.076.013-.329.083-.587h0c.04-.145.086-.314.117-.491l.019-.107h0l.014-.074a5.494,5.494,0,0,1,.462-1.641l.019-.026a.926.926,0,0,0,.053-.076h0a22.132,22.132,0,0,0,1.337-2.873c.035-.085.071-.166.106-.245h0l.187-.435c.739-1.721,1.045-2.434,1.267-2.532a.467.467,0,0,0,.258-.449.619.619,0,0,0-.419-.559c-.214-.083-.345-.027-.393.029a.474.474,0,0,0-.044.376c0,.025.008.046.009.048-.024.117-.637,1.6-1.4,3.392H256v.075c-.247.579-.492,1.146-.7,1.63a5.323,5.323,0,0,1-.861,1.434l-.05.056a3.562,3.562,0,0,1-.746.592,3.576,3.576,0,0,0-.436.312c-.021.019-.043.036-.064.052l-.021.016c-.137.1-.248.141-.3.1-.079-.053-.113-.283-.026-.62a.39.39,0,0,0-.27-.537v0a.882.882,0,0,0-.378,0v0h-.019a1.479,1.479,0,0,0-.487.185,4.4,4.4,0,0,0-.373.269l-.067.053a2.145,2.145,0,0,1-.871.506,2.071,2.071,0,0,1-.367,0,.763.763,0,0,0-.734.232l-.05.061c-.2.239-.359.4-.459.4-.077,0-.169-.1-.294-.253a.475.475,0,0,0-.319-.2c-.184-.016-.343.121-.528.28-.084.073-.172.148-.269.217l-.031.021-.036.024-.051.032a.464.464,0,0,1-.581-.015l-.035-.019h0a.293.293,0,0,0-.037-.021,3.338,3.338,0,0,1-.746-.9.814.814,0,0,1,.24-.465c.046-.054.122-.141.222-.246l0,0a6.738,6.738,0,0,1,1.233-1.057,2.576,2.576,0,0,1,1.232-.458c.121-.018.25-.037.4-.067a11.367,11.367,0,0,0,1.78-.666l.051-.025,0-.056a1.76,1.76,0,0,1,.351-.757l.023-.034c.075-.112.162-.227.264-.353a3.33,3.33,0,0,1,1.313-1.021l.1-.035-.048-.093a1.163,1.163,0,0,1-.1-.559c.018-.266.019-.271,1.423-1.17l.573-.367a5.285,5.285,0,0,1,3.6-1.109c.121,0,.244,0,.373,0a2.285,2.285,0,0,1,1.95,1.145l.064.089a3.1,3.1,0,0,1,.345.856c.021.068.041.136.062.2a.136.136,0,0,0-.038-.005c-.287,0-.351,1.1-.364,1.569a3.437,3.437,0,0,0,.035.817h0c0,.009.006.017.008.026l.011.047h0a1.306,1.306,0,0,0,.3.469c.27.308.184.55-.061.992a3.2,3.2,0,0,1-.336.452,3.271,3.271,0,0,0-.665,1.074l-.04.12h.01c-.006.022-.013.043-.019.066a2.232,2.232,0,0,1-1.226,1.514.9.9,0,0,0-.112.021h0c-.29.067-.972.286-2.084.667h0C255.958,151.02,255.26,151.268,254.844,151.416Zm2.982,9.433h0Zm2.322,6.512a.824.824,0,0,1-.293-.143c-.1-.093-.123-.221.1-.545l.1-.143h0l.032-.044a.249.249,0,0,1,.219-.127c.105.013.22.13.292.3l.024.055h.005c.061.156.12.253.216.253h0c.114,0,.164-.131.233-.312l0,0,.006-.015a2,2,0,0,1,.255-.509,4.745,4.745,0,0,0,.765-1.637h.025v-.083a2.86,2.86,0,0,0-.342-1.245h0l-.053-.128h0l-.1-.232c-.093-.218-.188-.44-.273-.651h0a5.91,5.91,0,0,1-.2-.561c-.011-.037-.023-.072-.035-.1h0c-.179-.514-.384-.532-.578-.475l-.029.008a.314.314,0,0,0-.041-.076h.044l-.2-.161a1.108,1.108,0,0,0-.615-.258.335.335,0,0,0-.353.316h0c0,.011,0,.019,0,.03l-.011.074h.007a.728.728,0,0,0,.5.655l.02.01h.006c.057.029.115.058.175.087.083.04.168.081.252.127a.935.935,0,0,1,.422.4h0a.249.249,0,0,1-.042.28c-.035.039-.061.072-.083.1l-.013.017c-.021-.03-.049-.074-.078-.119l-.092-.143-.052-.08h.011l-.107-.145c-.1-.129-.2-.249-.337-.249s-.236.123-.3.221a.073.073,0,0,1-.013.018l0,0c-.02.021-.05.044-.144-.006l-.024-.014a4.244,4.244,0,0,1-.524-.438l-.234-.212,0,0c-.256-.233-.494-.438-.745-.643h0l-.033-.027a7.844,7.844,0,0,1-1.021-.993l-.081-.1a4.423,4.423,0,0,1-.662-1.086h0a2.678,2.678,0,0,1-.21-1.007,2.863,2.863,0,0,1,.816-2.462,1.224,1.224,0,0,0,.261-.4h0l0-.015c.006-.015.013-.031.018-.046h0v0a1.747,1.747,0,0,0,.048-.594,2.255,2.255,0,0,1,.052-.685.649.649,0,0,1,.107-.243l0,0,0,0c.14-.189.363-.15.712-.063.1.025.2.05.3.065a.924.924,0,0,0,.732-.1.545.545,0,0,0,.188-.412.329.329,0,0,0-.064-.26c-.071-.07-.175-.062-.306-.052a1.832,1.832,0,0,1-.593-.034c-.164-.038-.26-.1-.251-.159a.409.409,0,0,1,.374-.225.344.344,0,0,0,.4-.269h.007l.041-.127c.026-.081.057-.179.1-.292a.375.375,0,0,1,.244-.253h0a1.28,1.28,0,0,1,.472-.014c.09.008.18.015.267.015.347,0,.4-.253.466-.6l.012-.058h0l.015-.072a4.481,4.481,0,0,1,.132-.5,11.8,11.8,0,0,1,.529-1.259l.061-.13h0c.268-.56.575-1.161.8-1.609.428-.838.063-1.1-.2-1.292a.971.971,0,0,1-.189-.16l0-.005a2.218,2.218,0,0,1-.019-.9,6.059,6.059,0,0,0,.03-.863,5.443,5.443,0,0,0,.657.744,12.025,12.025,0,0,1,1,1.117l0,0a3.352,3.352,0,0,1,.305.463,2.328,2.328,0,0,1,.36.949c.009.092.01.19.012.3,0,.146,0,.327.024.571a2.31,2.31,0,0,0,.209.8l.024.052h0a4.31,4.31,0,0,0,.362.574,5.476,5.476,0,0,1,.357.549.719.719,0,0,0,.784.413,1.068,1.068,0,0,1,.721.179l.065.048,0,0a1.679,1.679,0,0,1,.339.338c.192.244.287.212.689-.059a1.4,1.4,0,0,1,.8-.2,7.133,7.133,0,0,1,1.9.394,3.521,3.521,0,0,1,.514.2h0c.127.059.241.119.346.175a1.635,1.635,0,0,0,.729.258.917.917,0,0,0,.553-.212,1.446,1.446,0,0,1,.5-.215h0a12,12,0,0,1,2.153-.233c.593-.033,1.265-.071,1.944-.147.641-.071,1.215-.117,1.77-.161.472-.038.918-.073,1.367-.122v0h0a16.1,16.1,0,0,0,2.226-.384,29.214,29.214,0,0,1,5.31-.378c1,0,1.8.026,2.154.051a12.205,12.205,0,0,1,2.024.356c.417.1.936.215,1.6.354h0l.019.005a25.069,25.069,0,0,0,5.112.312c.269,0,.519-.005.743-.005a1.009,1.009,0,0,1,.677.332l.062-.066-.062.066a3.582,3.582,0,0,1,.522.648h0a10.9,10.9,0,0,1,.8,1.541l.024.055h0c.2.469.4.97.592,1.492h0c.225.608.437,1.225.624,1.77.084.243.163.475.239.693a8.562,8.562,0,0,0,.738,1.546v0h0a11.925,11.925,0,0,0,.755,1.118h0c.269.359.573.724.931,1.116l.067-.061-.066.062c.206.222.424.447.648.668l.064-.065h0l0,0h0l-.063.065c.248.24.494.464.731.667h0c.273.231.522.426.739.581a1.271,1.271,0,0,1,.318.287l.076-.05-.075.051a.142.142,0,0,1,.029.061c-.033.045-.367.087-1.162-.18l-.023-.008-.024-.008v0a1.654,1.654,0,0,1-.862-.589c-.034-.041-.07-.083-.108-.125h.029l-.2-.161a1.856,1.856,0,0,0-.569-.3l-.209-.072a2.588,2.588,0,0,1-.666-.293v0a3.249,3.249,0,0,1-.54-.5h0l-.132-.151c-.236-.269-.529-.623-.926-1.107h0l-.011-.013a.187.187,0,0,1-.019-.025,5.56,5.56,0,0,1-.646-1.051l0,0a21.651,21.651,0,0,1-1.358-3.978h0c-.1-.38-.183-.77-.267-1.192-.017-.09-.035-.172-.053-.25h.005l-.027-.112c-.176-.716-.338-.833-.457-.918-.066-.047-.1-.069-.1-.292a1.191,1.191,0,0,0-.034-.229h.013l-.048-.124h0l-.022-.058h0a.63.63,0,0,0-.56-.395.568.568,0,0,0-.39.162,2.883,2.883,0,0,1-.316.247l0,0-.043.031-.19.134h.023a.225.225,0,0,0-.082.183c.013.114.141.167.182.184a6.133,6.133,0,0,1,1.06,1.151l0,0,0,0,.266.337c.166.211.309.393.42.525a1.266,1.266,0,0,1,.226.645,5.708,5.708,0,0,1-.092,1.722c-.027.118-.192.232-.4.375a2.6,2.6,0,0,0-1.286,1.87l-.017.105h.006l0,.028a3.49,3.49,0,0,0,.014,1.006h0c0,.025.01.048.015.072v0h0a1.8,1.8,0,0,0,.635,1.09l.025.019h.005a1.718,1.718,0,0,0,.785.326,3.7,3.7,0,0,0,.557.039c.236,0,.292,0,.4.174,0,.008.008.018.012.026l.015.042a1.145,1.145,0,0,1-.022.612h0a2.811,2.811,0,0,1-.385.859l-.023.034c-.031.045-.062.09-.1.133a4.742,4.742,0,0,0-.6,1.182h0c-.075.188-.151.383-.226.579a12.429,12.429,0,0,1-.594,1.388,1.071,1.071,0,0,1-.157.223l.065.06-.066-.06c-.419.462-1.152.406-1.929.348-.174-.013-.351-.026-.526-.034a2.436,2.436,0,0,1-.962-.139c-.011-.013-.017-.036-.007-.1h0v-.008a.478.478,0,0,1,.01-.055c.013-.076.093-.1.271-.148a.909.909,0,0,0,.52-.271c.1-.12.2-.179.269-.162s.142.136.174.315l.008.057c.038.26.186.349.316.349a.276.276,0,0,0,.041,0c.251-.036.479-.372.411-.853a.847.847,0,0,1,.582-1.074.321.321,0,0,0,.2-.19.226.226,0,0,0,0-.1h.035l-.091-.14a1.54,1.54,0,0,0-.233-.255.886.886,0,0,1-.193-.219.673.673,0,0,1,.043-.311,2.633,2.633,0,0,0,.082-.408h.007l0-.087a1.559,1.559,0,0,0-.032-.407c-.108-.52-.781-.476-1.632-.419-.3.02-.635.042-.975.042a3.025,3.025,0,0,1-.959-.193v0a8.2,8.2,0,0,1-1.393-.657h0a11.344,11.344,0,0,1-1.005-.659h0a8.849,8.849,0,0,1-1.182-1.024l-.068-.074a13.306,13.306,0,0,0-1.172-1.117l-.026-.022h0c-.131-.111-.256-.215-.372-.31a3.953,3.953,0,0,1-.773-.737,2.531,2.531,0,0,1-.255-.647c-.067-.235-.111-.391-.25-.391l-.024,0a.189.189,0,0,0-.137.105,1.674,1.674,0,0,0,.195,1.191c.061.138.174.394.146.438a1.165,1.165,0,0,1-.441.042c-.09,0-.193,0-.308.005-.641.019-.955.058-1.084.3h-.009l-.017.052,0,.005-.044.122h.014c0,.025-.01.051-.013.078-.027.2-.1.328-.192.328-.044,0-.139-.029-.286-.219a.4.4,0,0,0-.324-.176c-.281,0-.6.3-1,.673-.093.086-.19.177-.291.268h0q-.119.106-.245.212a3.958,3.958,0,0,1-2.425.693c-.181,0-.364-.007-.541-.022a2.365,2.365,0,0,0-1.14.209h0l-.078.031a1.763,1.763,0,0,1-.793.187,2.868,2.868,0,0,0-1.334.449l0,.015-.006-.012-.149.078a4.556,4.556,0,0,1-.812.368,14.113,14.113,0,0,1-3.4-.2c-.511-.086-.634.016-.826.217a1.8,1.8,0,0,1-.233.215h0a2.478,2.478,0,0,1-.669.335,15.476,15.476,0,0,1-3.927.254,14.617,14.617,0,0,0-1.479.022c-.344.044-.406-.021-.415-.034-.035-.053.058-.215.108-.3.014-.024.027-.047.041-.074l.017-.04h.007l.021-.061a1.72,1.72,0,0,0,.046-.613l-.006-.172h0c0-.021,0-.042,0-.063a.4.4,0,0,1,.008-.094l.025,0a.3.3,0,0,0,.342-.173.243.243,0,0,0,.034-.156h.04l-.1-.143h0a1.248,1.248,0,0,0-.224-.22c-.1-.079-.213-.178-.213-.242,0-.03.031-.061.057-.082a.165.165,0,0,1,.1-.045c.082,0,.173.125.254.235.1.14.209.285.361.285a.247.247,0,0,0,.11-.027c.1-.048.173,0,.289.062a.976.976,0,0,0,.525.165,1.062,1.062,0,0,0,.18-.016c.123-.021.239-.055.255-.156.02-.126-.126-.2-.418-.357a3.94,3.94,0,0,1-.735-.461c-.1-.086-.186-.164-.264-.235l-.059-.054h0a1.508,1.508,0,0,0-1.13-.494c-.412-.015-.591.123-.665.237a.372.372,0,0,0-.054.257h-.019l.052.126h0l.024.054h.008a.638.638,0,0,0,.133.166,1.351,1.351,0,0,1,.4.866v0h0c.013.069.021.143.029.218l.005.046a2.744,2.744,0,0,1,.027.379l0,.052,0,.009a.68.68,0,0,1-.149-.121h0l-.052-.053c-.2-.208-.332-.3-.439-.3a.161.161,0,0,0-.126.058.469.469,0,0,0-.036.376l.013.076h0c.014.145-.106.236-.313.377-.058.04-.118.08-.175.125l-.209.163h.041a.724.724,0,0,0-.067.088.263.263,0,0,0,.046.38.671.671,0,0,0,.782-.067c.136-.153.25-.226.338-.217.07.007.139.067.205.178.047.079.083.135.11.176l.014.022a.676.676,0,0,0-.1.061.89.89,0,0,0-.137.119h0l-.142.153h.023a2.26,2.26,0,0,0-.212.433c-.127.324-.224.349-.348.35a.33.33,0,0,1-.03-.1.381.381,0,0,0-.247-.332c-.12-.036-.247.031-.347.183-.132.2-.231.576-.075.761l.027.032h.009a.43.43,0,0,0,.265.147h.018a.33.33,0,0,0,.211-.146h.049v-.06c.058-.069.107-.085.124-.081s.024.024.031.065a.534.534,0,0,1,0,.116c-.164,1.527-.283,1.617-.919,1.992h0l-.085.051-.177.107-.045.026h0c-.05.031-.1.062-.154.1a7.269,7.269,0,0,1-.67.4h0A1.585,1.585,0,0,1,260.148,167.361Zm1.6-3.052v0s0,0,0,0v0Zm34.514,2.035a.142.142,0,0,0,.025.036h0a.153.153,0,0,1-.024-.033Z" transform="translate(-244.484 -140.019)"/><path class="a" d="M342.6,235.547a3.037,3.037,0,0,1,.3.154,2.053,2.053,0,0,1,.391.33.832.832,0,0,0,.321.243.2.2,0,0,0,.053.007.921.921,0,0,0,.516-.331.584.584,0,0,0,.185-.387.859.859,0,0,1,0-.1c0-.236-.047-.47-.593-.517-.291-.024-.547-.036-.759-.036-.532,0-.768.072-.788.241C342.2,235.358,342.387,235.445,342.6,235.547Z" transform="translate(-324.464 -217.672)"/><path class="a" d="M324.7,200.829a.281.281,0,0,0-.151.051l-.038.025a.4.4,0,0,0-.23.378l0,.1h.006c0,.148.016.273.11.324a.163.163,0,0,0,.078.019.4.4,0,0,0,.2-.081,1.025,1.025,0,0,0,.288-.259h.011l.022-.056h0v0a.278.278,0,0,0-.012-.231C324.929,200.981,324.852,200.829,324.7,200.829Z" transform="translate(-309.778 -189.78)"/><path class="a" d="M298.75,175.608a.534.534,0,0,0-.543.235.77.77,0,0,0,.023.519.242.242,0,0,0,.18.112,1.269,1.269,0,0,0,.136.009h0a.46.46,0,0,0,.409-.249.4.4,0,0,0,.061-.372A.4.4,0,0,0,298.75,175.608Z" transform="translate(-288.416 -169.131)"/><path class="a" d="M285.629,162.169h-.149a.841.841,0,0,1-.137-.008l-.014-.027h-.057a.121.121,0,0,0-.056.016c-.027.013-.1.049-.3.126a4.531,4.531,0,0,0-1.368.9c-.069.088-.044.191.075.305l.027.026h.006c.075.066.18.143.312.24.112.082.243.178.392.293l.147.115c.3.232.506.4.695.4a.4.4,0,0,0,.3-.163,1.227,1.227,0,0,0,.372-.884h0v-.039c0-.016,0-.03,0-.047h0V163.3c0-.382,0-.382.058-.472a1.9,1.9,0,0,0,.116-.2.36.36,0,0,0,.041-.339C286.018,162.177,285.861,162.169,285.629,162.169Z" transform="translate(-276.418 -158.116)"/></g><path class="a" d="M554.788,319.961l.008-.137h.014l-.008.137Z" transform="translate(-462.601 -287.155)"/><path class="a" d="M552.762,319.885l0-.137h.008l0,.137Z" transform="translate(-460.943 -287.092)"/><path class="a" d="M552.766,319.507h0m0-.137,0,.275h.008l0-.275Z" transform="translate(-460.944 -286.783)"/><path class="a" d="M553.169,319.912c-.115-.005-.236-.011-.359-.011l0-.137c.124,0,.247.005.365.014Z" transform="translate(-460.981 -287.106)"/><path class="a" d="M552.354,319.885h-.091v-.137h.093Z" transform="translate(-460.535 -287.092)"/><path class="a" d="M552.264,319.507h0m0-.137h0v.275h.091l0-.275h-.093" transform="translate(-460.535 -286.783)"/><path class="a" d="M554.865,319.961l.008-.137.036,0-.008.137Z" transform="translate(-462.663 -287.155)"/><g transform="translate(0 31.236)"><path class="a" d="M59.808,316.5H54.922v.8h.261a1.4,1.4,0,0,1,1.035.275c.11.126.239.445.239,1.25v3.461H50.9v-3.461c0-.8.129-1.123.239-1.25a1.411,1.411,0,0,1,1.035-.275h.261v-.8H47.414v.8h.269a1.381,1.381,0,0,1,1.027.272v.005c.11.126.239.445.239,1.25v8.47a2.068,2.068,0,0,1-.242,1.266,1.409,1.409,0,0,1-1.027.266h-.269v.788h5.023v-.788h-.261a1.4,1.4,0,0,1-1.035-.275,2.057,2.057,0,0,1-.242-1.261v-4.1h5.564v4.1a2.072,2.072,0,0,1-.242,1.261,1.411,1.411,0,0,1-1.035.275h-.261v.788h5.023v-.788h-.269a1.43,1.43,0,0,1-1.035-.266,2.136,2.136,0,0,1-.233-1.269v-8.47a2.071,2.071,0,0,1,.233-1.252,1.412,1.412,0,0,1,1.035-.275h.269V316.5h-.138Z" transform="translate(-47.411 -315.668)"/><path class="a" d="M127.9,343.706a3.764,3.764,0,0,1-.527.041.944.944,0,0,1-.928-.423,4.833,4.833,0,0,1-.247-1.928v-3.919a2.587,2.587,0,0,0-.665-1.969,3.047,3.047,0,0,0-2.112-.612,4.657,4.657,0,0,0-2.9.9,2.6,2.6,0,0,0-1.2,1.994v.437l.179-.058,1.777-.571.1-.03v-.513a1.074,1.074,0,0,1,.332-.871,1.614,1.614,0,0,1,1.052-.291,1.9,1.9,0,0,1,1.159.346.914.914,0,0,1,.376.5,4.6,4.6,0,0,1,.093,1.145v1.195l-1.035.3a10.149,10.149,0,0,0-3.211,1.379,2.311,2.311,0,0,0-.371,3.513,2.18,2.18,0,0,0,1.612.654,3.516,3.516,0,0,0,1.788-.489,5.314,5.314,0,0,0,1.4-1.211,2.521,2.521,0,0,0,.527,1.181,1.565,1.565,0,0,0,1.219.519,3.44,3.44,0,0,0,1.681-.472l.071-.039v-.722Zm-4.131-.695a2.072,2.072,0,0,1-1.467.676,1.147,1.147,0,0,1-.868-.4,1.325,1.325,0,0,1-.368-.939c0-.07,0-.141.008-.206h0v0a1.844,1.844,0,0,1,.088-.427c.006-.016.01-.034.016-.05l0-.008a1.36,1.36,0,0,1,.429-.586A8.629,8.629,0,0,1,124.089,340l.294-.092v1.463a2.188,2.188,0,0,1-.47,1.489C123.867,342.914,123.817,342.964,123.771,343.011Z" transform="translate(-106.092 -330.723)"/><path class="a" d="M132.05,381.916a1.359,1.359,0,0,1-1.019-.461l.1-.093a1.216,1.216,0,0,0,.917.418l0,.137Z" transform="translate(-115.838 -368.747)"/><path class="a" d="M130.862,381.2a1.3,1.3,0,0,0,.967.44h0a1.284,1.284,0,0,1-.967-.44m.1-.093-.2.19a1.43,1.43,0,0,0,1.068.481V381.5a1.151,1.151,0,0,1-.868-.4" transform="translate(-115.616 -368.535)"/><path class="a" d="M175.254,335.937a2.156,2.156,0,0,0-1.843-1.121,2.647,2.647,0,0,0-1.381.483,8.079,8.079,0,0,0-1.376,1.17V334.8h0l-.184.066-3.142,1.118-.091.033v.31l.085.036.5.206c.6.244.807.45.871.579a4.013,4.013,0,0,1,.151,1.486v3.631a2.03,2.03,0,0,1-.247,1.266c-.107.121-.379.266-1.071.266h-.286v.788h5.213v-.8h-.261c-.807,0-1.132-.148-1.261-.275s-.275-.445-.275-1.25V337.6c.082-.071.11-.093.118-.1l.005,0,.005-.005a3.283,3.283,0,0,1,1.752-1.049c.437,0,.851.335,1.239,1l.093.162.126-.137,1.25-1.357.071-.08Z" transform="translate(-145.463 -330.648)"/><g transform="translate(29.895 4.111)"><path class="a" d="M227.991,343.625h-.132a1.414,1.414,0,0,1-1.035-.272,2.115,2.115,0,0,1-.233-1.261v-3.7a4.966,4.966,0,0,0-.555-2.757,2.219,2.219,0,0,0-1.922-.986,3.357,3.357,0,0,0-1.607.5,9.575,9.575,0,0,0-1.722,1.3,2.392,2.392,0,0,0-.794-1.25,2.469,2.469,0,0,0-1.618-.552,3.133,3.133,0,0,0-1.5.472,9.2,9.2,0,0,0-1.582,1.167v-1.705l-.178.066-3.076,1.159-.088.033v.31l.082.036.472.206c.563.236.758.437.824.566v.005a3.112,3.112,0,0,1,.157,1.3v3.828a2.088,2.088,0,0,1-.242,1.269,1.394,1.394,0,0,1-1.019.266h-.277v.788h4.9v-.788H216.6a1.517,1.517,0,0,1-1.063-.266,2.09,2.09,0,0,1-.239-1.266v-4.8a7.071,7.071,0,0,1,1.315-.81,2.86,2.86,0,0,1,1.142-.277,1.177,1.177,0,0,1,1.046.448,2.793,2.793,0,0,1,.33,1.557v3.886a2.087,2.087,0,0,1-.242,1.269,1.394,1.394,0,0,1-1.019.266h-.277v.788h4.889v-.788h-.245a1.5,1.5,0,0,1-1.055-.266,2.09,2.09,0,0,1-.239-1.266v-4.806a5.657,5.657,0,0,1,1.241-.807,2.9,2.9,0,0,1,1.184-.277,1.2,1.2,0,0,1,1.063.47,2.767,2.767,0,0,1,.346,1.568v3.853a2.065,2.065,0,0,1-.242,1.261,1.346,1.346,0,0,1-1.011.272h-.294v.788h4.9v-.788Z" transform="translate(-211.946 -334.576)"/><path class="a" d="M230.357,334.562v0l.008,0Z" transform="translate(-227.012 -334.562)"/></g><path class="a" d="M308.047,337.918a4.645,4.645,0,0,0-1.022-1.607,4.5,4.5,0,0,0-1.546-1.063,5.363,5.363,0,0,0-3.834,0,4.505,4.505,0,0,0-1.549,1.063,4.722,4.722,0,0,0-1.016,1.607,6.022,6.022,0,0,0,0,3.977A4.7,4.7,0,0,0,300.1,343.5a4.557,4.557,0,0,0,1.549,1.063,5.363,5.363,0,0,0,3.834,0,4.494,4.494,0,0,0,1.546-1.063,4.719,4.719,0,0,0,1.022-1.609,5.977,5.977,0,0,0,0-3.977Zm-2.552,5.029a2.226,2.226,0,0,1-3.864,0,6.491,6.491,0,0,1,0-6.078,2.226,2.226,0,0,1,3.864,0,6.491,6.491,0,0,1,0,6.078Z" transform="translate(-253.077 -330.722)"/><g transform="translate(55.157 4.12)"><path class="a" d="M369.408,334.607h0Z" transform="translate(-366.06 -334.607)"/><path class="a" d="M361.893,343.649h-.115a1.467,1.467,0,0,1-1.046-.266,2.083,2.083,0,0,1-.239-1.266v-3.68a7.24,7.24,0,0,0-.192-1.788,2.5,2.5,0,0,0-2.56-1.98,3.7,3.7,0,0,0-1.736.5,8.507,8.507,0,0,0-1.675,1.241v-1.792l-.184.068-3.076,1.151-.088.033v.31l.082.036.472.206c.571.244.769.448.835.574a3.668,3.668,0,0,1,.151,1.4v3.721a2.086,2.086,0,0,1-.242,1.269,1.379,1.379,0,0,1-1.011.266h-.286v.788h4.9v-.788h-.244a1.517,1.517,0,0,1-1.063-.266,2.09,2.09,0,0,1-.239-1.266v-4.809a6.587,6.587,0,0,1,1.434-.8,3.618,3.618,0,0,1,1.337-.28,1.363,1.363,0,0,1,1.195.489,2.9,2.9,0,0,1,.379,1.689v3.713a2.065,2.065,0,0,1-.242,1.261,1.376,1.376,0,0,1-1.027.272h-.269v.788h4.889v-.788Z" transform="translate(-350.981 -334.613)"/></g><g transform="translate(65.481 1.889)"><path class="a" d="M427.2,322.333v0l0,0Z" transform="translate(-423.672 -322.333)"/><path class="a" d="M414.357,333.073a3.124,3.124,0,0,1-1.34.472,1.371,1.371,0,0,1-1.28-.667,4.861,4.861,0,0,1-.412-2.3V325.8h2.953v-.912h-2.953v-2.538l-.231.225-3.051,2.985-.242.236h1.714v5.048a8.473,8.473,0,0,0,.154,1.728,3.169,3.169,0,0,0,.475,1.181,2.447,2.447,0,0,0,2.129.9,4.484,4.484,0,0,0,2.219-.6l.069-.039v-1.055Z" transform="translate(-407.801 -322.345)"/></g><path class="a" d="M551.032,353.153a3.457,3.457,0,0,0-.942-1.2,4.548,4.548,0,0,0-3.024-1.035H546.7v-.137h.365a4.675,4.675,0,0,1,3.112,1.066,3.632,3.632,0,0,1,.978,1.247Z" transform="translate(-455.983 -343.722)"/><path class="a" d="M546.769,350.555a4.581,4.581,0,0,1,3.068,1.049,3.5,3.5,0,0,1,.958,1.225,3.523,3.523,0,0,0-.958-1.222,4.563,4.563,0,0,0-3.068-1.052h0m0-.137h-.434v.275h.434a4.467,4.467,0,0,1,2.98,1.019,3.394,3.394,0,0,1,.923,1.176l.25-.115a3.623,3.623,0,0,0-1-1.272,4.749,4.749,0,0,0-3.156-1.082" transform="translate(-455.686 -343.426)"/><path class="a" d="M554.765,319.583h0m.008-.137-.017.275h.016l.016-.275h-.016Z" transform="translate(-462.575 -318.081)"/><path class="a" d="M556.455,320.27a4.3,4.3,0,0,0-1.4-.294l.008-.137a4.5,4.5,0,0,1,1.442.3Z" transform="translate(-462.823 -318.403)"/><path class="a" d="M555.041,319.6a4.347,4.347,0,0,1,1.417.3,4.341,4.341,0,0,0-1.417-.3m.008-.137-.019.275a4.227,4.227,0,0,1,1.373.288l.107-.253a4.527,4.527,0,0,0-1.461-.31" transform="translate(-462.799 -318.093)"/><path class="a" d="M552.808,319.507c.124,0,.244.005.363.014-.115-.008-.236-.011-.363-.014m0-.137,0,.275c.121,0,.242.005.357.011l.017-.275c-.121-.005-.247-.008-.371-.011" transform="translate(-460.981 -318.019)"/><path class="a" d="M554.856,319.583l.036,0c-.014,0-.025,0-.036,0m.008-.137-.017.275a.062.062,0,0,1,.022,0h.014l.019-.275h-.014l-.025,0" transform="translate(-462.65 -318.081)"/><path class="a" d="M563.188,325.4a2.6,2.6,0,0,0,.75-1.887,1.876,1.876,0,0,0-.766-1.631,2.3,2.3,0,0,0-.431-.239l.055-.126a2.409,2.409,0,0,1,.456.253,2,2,0,0,1,.824,1.744,2.737,2.737,0,0,1-.788,1.983Z" transform="translate(-469.109 -319.775)"/><path class="a" d="M562.655,321.3a2.208,2.208,0,0,1,.442.247,1.929,1.929,0,0,1,.794,1.686,2.663,2.663,0,0,1-.766,1.934,2.657,2.657,0,0,0,.766-1.934,1.926,1.926,0,0,0-.794-1.686,2.36,2.36,0,0,0-.442-.247m.47,3.867h0m-.415-3.993-.107.253a2.256,2.256,0,0,1,.418.231,1.783,1.783,0,0,1,.736,1.576,2.535,2.535,0,0,1-.728,1.837l.1.1-.1-.093h0l0,0,.2.192,0,0-.1-.1.1.1-.1-.1.1.1a2.8,2.8,0,0,0,.8-2.027,2.068,2.068,0,0,0-.852-1.8,2.294,2.294,0,0,0-.47-.266" transform="translate(-468.996 -319.491)"/><path class="a" d="M546.7,343.95v-.137h1.656a2.535,2.535,0,0,0,1.706-.923l.1.1a2.658,2.658,0,0,1-1.8.964Z" transform="translate(-455.983 -337.266)"/><path class="a" d="M549.8,342.729a2.585,2.585,0,0,1-1.752.942h0a2.587,2.587,0,0,0,1.752-.942m-.1-.1a2.469,2.469,0,0,1-1.656.9h-1.725v.275h1.725a2.725,2.725,0,0,0,1.851-.983Z" transform="translate(-455.675 -337.055)"/><path class="a" d="M537.393,323.676a4.775,4.775,0,0,0-2.123-1.291,5.27,5.27,0,0,0,1.846-1.332,3.112,3.112,0,0,0,.744-2.049,2.23,2.23,0,0,0-1.011-1.95,2.951,2.951,0,0,0-1.181-.453,17.1,17.1,0,0,0-2.307-.1h-4.694v.8h.3a1.316,1.316,0,0,1,1,.272,2.1,2.1,0,0,1,.234,1.269V327.3a2.12,2.12,0,0,1-.234,1.261,1.365,1.365,0,0,1-1,.264h-.3v.788h5.24a4.991,4.991,0,0,0,3.205-.956,3.235,3.235,0,0,0,1.2-2.637A3.361,3.361,0,0,0,537.393,323.676Zm-3.282,5.144c-1.321-.033-1.961-.533-1.961-1.533v-4.35h.159a4.477,4.477,0,0,1,2.98,1.019,3.4,3.4,0,0,1,.923,1.176h0c.033.072.06.147.087.221.019.051.036.1.053.155a3.127,3.127,0,0,1,.121.591,3.429,3.429,0,0,1,.017.349,2.914,2.914,0,0,1-.041.492,2.313,2.313,0,0,1-.6,1.216,2.068,2.068,0,0,1-1.277.645c-.029,0-.058.009-.088.012l-.05,0c-.062,0-.124.008-.189.008C534.2,328.823,534.155,328.823,534.11,328.82Zm-1.06-11.524h0c.121,0,.242.005.357.011h.049a4.228,4.228,0,0,1,1.373.288,2.247,2.247,0,0,1,.418.231,1.783,1.783,0,0,1,.736,1.577,2.533,2.533,0,0,1-.731,1.84,2.469,2.469,0,0,1-1.656.9h-1.45V317.3h.9Z" transform="translate(-441.226 -315.67)"/><path class="a" d="M587.481,325.081h-.107a1.517,1.517,0,0,1-1.063-.266,2.092,2.092,0,0,1-.239-1.266V311.934h0l-.187.069-3.076,1.156-.088.033v.319l.085.036.47.2c.577.25.772.453.832.579a3.86,3.86,0,0,1,.151,1.45v7.775a2.139,2.139,0,0,1-.233,1.269,1.4,1.4,0,0,1-1.019.264h-.286v.788h4.9v-.788Z" transform="translate(-485.459 -311.934)"/><path class="a" d="M619.316,343.706a3.765,3.765,0,0,1-.527.041.944.944,0,0,1-.928-.423,4.832,4.832,0,0,1-.247-1.928v-3.919a2.588,2.588,0,0,0-.665-1.969,3.042,3.042,0,0,0-2.112-.612,4.657,4.657,0,0,0-2.9.9,2.6,2.6,0,0,0-1.2,1.994v.437l.179-.058,1.777-.571.1-.03v-.513a1.074,1.074,0,0,1,.332-.871,1.614,1.614,0,0,1,1.052-.291,1.9,1.9,0,0,1,1.159.346.914.914,0,0,1,.376.5,4.592,4.592,0,0,1,.093,1.145v1.195l-1.033.3a10.2,10.2,0,0,0-3.213,1.379,2.311,2.311,0,0,0-.371,3.513,2.18,2.18,0,0,0,1.612.654,3.516,3.516,0,0,0,1.788-.489,5.316,5.316,0,0,0,1.4-1.211,2.521,2.521,0,0,0,.527,1.181,1.563,1.563,0,0,0,1.219.516,3.44,3.44,0,0,0,1.681-.472l.071-.039v-.719Zm-6.822-1.56h0v0a1.841,1.841,0,0,1,.088-.427c.006-.016.01-.034.016-.05l0-.007a1.359,1.359,0,0,1,.429-.586A8.628,8.628,0,0,1,615.507,340l.294-.092v1.463a2.189,2.189,0,0,1-.47,1.489c-.017.017-.03.033-.047.052a2.145,2.145,0,0,1-1.563.772,1.147,1.147,0,0,1-.868-.4,1.324,1.324,0,0,1-.368-.939C612.486,342.281,612.489,342.211,612.494,342.146Z" transform="translate(-508.22 -330.723)"/><path class="a" d="M623.492,381.916a1.349,1.349,0,0,1-1.016-.461l.1-.093a1.225,1.225,0,0,0,.917.418Z" transform="translate(-517.99 -368.747)"/><path class="a" d="M622.289,381.2a1.294,1.294,0,0,0,.967.44,1.288,1.288,0,0,1-.967-.44m.1-.093-.2.19a1.43,1.43,0,0,0,1.068.481V381.5a1.143,1.143,0,0,1-.868-.4" transform="translate(-517.756 -368.535)"/><g transform="translate(111.396 4.155)"><path class="a" d="M678.964,334.8Z" transform="translate(-675.61 -334.804)"/><path class="a" d="M665.267,343.8h-.132a1.394,1.394,0,0,1-1.035-.275,2.061,2.061,0,0,1-.239-1.258V334.8l-.184.066-3.076,1.118-.091.033v.3l.077.039.431.206h0c.673.3.849.505.893.6v.005a4.164,4.164,0,0,1,.132,1.467v3.631a2.137,2.137,0,0,1-.233,1.269,1.366,1.366,0,0,1-1,.264h-.3v.788h4.9V343.8Z" transform="translate(-660.507 -334.803)"/></g><path class="a" d="M668.147,317.727a1.224,1.224,0,0,0-1.225-1.228c-.041,0-.085,0-.126.005a1.224,1.224,0,0,0-1.1,1.222,1.311,1.311,0,0,0,.05.367,1.228,1.228,0,0,0,.7.772,1.267,1.267,0,0,0,.478.089h0v0h.063v0h.008v0a1.188,1.188,0,0,0,.514-.137l0,0a1.2,1.2,0,0,0,.287-.216A1.191,1.191,0,0,0,668.147,317.727Z" transform="translate(-553.354 -315.67)"/><g transform="translate(116.282 4.12)"><path class="a" d="M705.826,334.607h0Z" transform="translate(-702.477 -334.607)"/><path class="a" d="M698.31,343.649h-.115a1.467,1.467,0,0,1-1.046-.266,2.082,2.082,0,0,1-.239-1.266v-3.68a7.237,7.237,0,0,0-.192-1.788,2.5,2.5,0,0,0-2.56-1.98,3.7,3.7,0,0,0-1.736.5,8.514,8.514,0,0,0-1.675,1.241v-1.792l-.184.068-3.076,1.151-.088.033v.31l.082.036.472.206c.571.244.769.448.835.574a3.67,3.67,0,0,1,.151,1.4v3.721a2.086,2.086,0,0,1-.242,1.269,1.379,1.379,0,0,1-1.011.266H687.4v.788h4.9v-.788h-.244a1.517,1.517,0,0,1-1.063-.266,2.09,2.09,0,0,1-.239-1.266v-4.809a6.584,6.584,0,0,1,1.434-.8,3.619,3.619,0,0,1,1.338-.28,1.363,1.363,0,0,1,1.195.489,2.9,2.9,0,0,1,.379,1.689v3.713a2.065,2.065,0,0,1-.242,1.261,1.376,1.376,0,0,1-1.027.272h-.269v.788h4.889v-.788Z" transform="translate(-687.398 -334.613)"/></g><path class="a" d="M760.363,339.859a3.841,3.841,0,0,1,.442-.775,2.214,2.214,0,0,1,1.816-.986v.137a2.084,2.084,0,0,0-1.706.931,3.7,3.7,0,0,0-.426.747Zm2.255-1.76h0l0,.137Z" transform="translate(-630.824 -333.344)"/><path class="a" d="M762.336,337.858h0m0,0a2.144,2.144,0,0,0-1.76.958,3.7,3.7,0,0,0-.434.761,3.7,3.7,0,0,1,.434-.761,2.137,2.137,0,0,1,1.76-.958m0-.137h0a2.271,2.271,0,0,0-1.87,1.013,3.907,3.907,0,0,0-.45.788l.253.11a3.691,3.691,0,0,1,.418-.733,2,2,0,0,1,1.651-.9v-.275Z" transform="translate(-630.54 -333.036)"/><path class="a" d="M757.944,349.62a6.074,6.074,0,0,1,.44-1.832l.126.055a5.993,5.993,0,0,0-.428,1.791Z" transform="translate(-628.845 -341.274)"/><path class="a" d="M758.137,347.692a6.015,6.015,0,0,0-.434,1.813,5.921,5.921,0,0,1,.434-1.813m-.126-.055a6.2,6.2,0,0,0-.445,1.854l.275.027a5.94,5.94,0,0,1,.423-1.772Z" transform="translate(-628.535 -341.15)"/><path class="a" d="M756.058,342.847a6.185,6.185,0,0,1-2.873.769,3.2,3.2,0,0,1-2.422-1.041,3.686,3.686,0,0,1-.98-2.6c0-.055,0-.143.005-.253h6.339v-.4a4.9,4.9,0,0,0-.991-3.246,3.447,3.447,0,0,0-2.777-1.181,4.291,4.291,0,0,0-3.285,1.434,4.893,4.893,0,0,0-.978,1.612,5.8,5.8,0,0,0-.324,1.969,5.6,5.6,0,0,0,.34,1.986,4.686,4.686,0,0,0,1.022,1.607,4.542,4.542,0,0,0,1.552,1.063,5.093,5.093,0,0,0,1.92.354,7.25,7.25,0,0,0,3.584-1.052l.069-.039v-1.085Zm-2.469-6.531A2.663,2.663,0,0,1,754.1,338a.738.738,0,0,1-.357.744l-.049.022a8.831,8.831,0,0,1-2.291.173h-1.56v0a5.828,5.828,0,0,1,.406-1.62,3.7,3.7,0,0,1,.417-.733,2,2,0,0,1,1.651-.9A1.542,1.542,0,0,1,753.589,336.316Z" transform="translate(-620.521 -330.722)"/><path class="a" d="M464.463,327.227c-.553,0-1.331-.523-2.315-1.553a8.793,8.793,0,0,0,1.958-3.409h1.768l.632-1.665h-4.735l-.469,1.355h.36a.812.812,0,0,1,.621.243.834.834,0,0,1,.243.621,4.455,4.455,0,0,1-.98,2.23,21.028,21.028,0,0,1-2.8-4.752c2.056-.738,3.1-1.73,3.1-2.949a2,2,0,0,0-.809-1.619,3.02,3.02,0,0,0-1.949-.639,3.115,3.115,0,0,0-2.183.8,2.655,2.655,0,0,0-.874,2.034,6.194,6.194,0,0,0,.549,2.182,7.22,7.22,0,0,0-2.475,1.965,4.273,4.273,0,0,0-.924,2.626,3.7,3.7,0,0,0,1.176,2.8,4.237,4.237,0,0,0,2.991,1.095,5.233,5.233,0,0,0,3.478-1.444,3.838,3.838,0,0,0,2.573,1.444,4.392,4.392,0,0,0,2.456-.847l.08-.054v-.805l-.245.091A3.588,3.588,0,0,1,464.463,327.227Zm-4.648-10.933a1.306,1.306,0,0,1,.3.887,2.571,2.571,0,0,1-1.662,2.287,7.254,7.254,0,0,1-.454-2.033,1.677,1.677,0,0,1,.336-1.069.943.943,0,0,1,.773-.415A.881.881,0,0,1,459.815,316.294Zm.424,10.228a3.272,3.272,0,0,1-2.082.9,2.756,2.756,0,0,1-2.126-.962,3.336,3.336,0,0,1-.878-2.344,3.557,3.557,0,0,1,1.734-3.171A18.868,18.868,0,0,0,460.239,326.522Z" transform="translate(-379.452 -314.517)"/></g></g></g></svg>